<?xml version="1.0" encoding="UTF-8"?>
<svg width="20px" height="20px" viewBox="0 0 20 20" version="1.1" xmlns="http://www.w3.org/2000/svg" xmlns:xlink="http://www.w3.org/1999/xlink">
    <title>图片</title>
    <g id="智能问答" stroke="none" stroke-width="1" fill="none" fill-rule="evenodd">
        <g id="人工客服端09-加入群聊" transform="translate(-1110.000000, -902.000000)" fill-rule="nonzero">
            <g id="编组" transform="translate(1090.000000, 892.000000)">
                <g id="图片" transform="translate(20.000000, 10.000000)">
                    <rect id="矩形" fill="#000000" opacity="0" x="0" y="0" width="20" height="20"></rect>
                    <path d="M16.4285714,2.5 L3.57142857,2.5 C2.152,2.5 1,3.53384615 1,4.80769231 L1,15.1923077 C1,16.4661538 2.152,17.5 3.57142857,17.5 L16.4285714,17.5 C17.848,17.5 19,16.4661538 19,15.1923077 L19,4.80769231 C19,3.53384615 17.848,2.5 16.4285714,2.5 Z M17.7142857,15.1923077 C17.7142857,15.8303846 17.1395714,16.3461538 16.4285714,16.3461538 L3.57142857,16.3461538 C3.097,16.3461538 2.69971429,16.105 2.476,15.7611538 L6.77928571,11.9003846 L8.86214286,13.7707692 C9.11542857,14.02 9.64128571,13.9461538 9.95242857,13.6680769 L14.4935714,9.59269231 L17.7142857,12.4830769 L17.7142857,15.1923077 Z M17.7142857,10.9080769 L14.9165714,8.39730769 C14.6748571,8.18038462 14.2814286,8.18038462 14.0384286,8.39730769 C14.0114286,8.42153846 14.0178571,8.45846154 13.9972857,8.48615385 L9.36485714,12.6457692 L7.20228571,10.705 C6.96057143,10.4880769 6.56714286,10.4880769 6.32414286,10.705 C6.29714286,10.7303846 6.30485714,10.7673077 6.283,10.7938462 L2.28571429,14.3823077 L2.28571429,4.80769231 C2.28571429,4.16961538 2.86042857,3.65384615 3.57142857,3.65384615 L16.4285714,3.65384615 C17.1395714,3.65384615 17.7142857,4.16961538 17.7142857,4.80769231 L17.7142857,10.9080769 Z M8.5112782,4.80769231 C7.20390977,4.80769231 6.14285714,5.84153846 6.14285714,7.11538462 C6.14285714,8.38923077 7.20390977,9.42307692 8.5112782,9.42307692 C9.81864662,9.42307692 10.8796992,8.38923077 10.8796992,7.11538462 C10.8796992,5.84153846 9.81864662,4.80769231 8.5112782,4.80769231 Z M8.5112782,8.26923077 C7.85640977,8.26923077 7.32706767,7.75346154 7.32706767,7.11538462 C7.32706767,6.47730769 7.85640977,5.96153846 8.5112782,5.96153846 C9.16614662,5.96153846 9.69548872,6.47730769 9.69548872,7.11538462 C9.69548872,7.75346154 9.16614662,8.26923077 8.5112782,8.26923077 Z" id="形状" fill="#999999"></path>
                </g>
            </g>
        </g>
    </g>
</svg>
