<?xml version="1.0" encoding="UTF-8"?>
<svg width="20px" height="20px" viewBox="0 0 20 20" version="1.1" xmlns="http://www.w3.org/2000/svg" xmlns:xlink="http://www.w3.org/1999/xlink">
    <title>文件</title>
    <g id="智能问答" stroke="none" stroke-width="1" fill="none" fill-rule="evenodd">
        <g id="人工客服端09-加入群聊" transform="translate(-1182.000000, -902.000000)" fill-rule="nonzero">
            <g id="编组" transform="translate(1090.000000, 892.000000)">
                <g id="文件" transform="translate(92.000000, 10.000000)">
                    <rect id="矩形" fill="#000000" opacity="0" x="0" y="0" width="20" height="20"></rect>
                    <path d="M16.8965517,4.22222273 L8.54951724,4.22222273 L7.68110345,2.5872228 C7.48931098,2.22549239 7.11508998,1.99969961 6.70786207,2.0000003 L3.10344828,2.0000003 C2.49489655,2.0000003 2,2.49833391 2,3.11111167 L2,15.8888889 C2,16.5016667 2.49489655,17.0000003 3.10344828,17.0000003 L16.8965517,17.0000003 C17.5051034,17.0000003 18,16.5016667 18,15.8888889 L18,5.3333338 C18,4.72055605 17.5051034,4.22222273 16.8965517,4.22222273 Z M3.10344828,3.11111167 L6.70786207,3.11111167 L7.888,5.3333338 L16.8965517,5.3333338 L16.8965517,7.03444484 C16.8893793,7.03444484 16.8827586,7.03222262 16.8755862,7.03222262 L3.12496552,7.03222262 C3.1177931,7.03222262 3.11117241,7.03444484 3.10344828,7.03444484 L3.10344828,3.11111167 Z M3.10344828,15.8888889 L3.10344828,14.2222223 L3.12496552,8.14333369 L16.8965517,8.1644448 L16.8965517,14.2222223 L16.8976552,14.2222223 L16.8976552,15.8888889 L3.10344828,15.8888889 Z" id="形状" fill="#999999"></path>
                </g>
            </g>
        </g>
    </g>
</svg>
