<?xml version="1.0" encoding="UTF-8"?>
<svg width="20px" height="20px" viewBox="0 0 20 20" version="1.1" xmlns="http://www.w3.org/2000/svg" xmlns:xlink="http://www.w3.org/1999/xlink">
    <title>视频</title>
    <g id="智能问答" stroke="none" stroke-width="1" fill="none" fill-rule="evenodd">
        <g id="人工客服端09-加入群聊" transform="translate(-1146.000000, -902.000000)">
            <g id="编组" transform="translate(1090.000000, 892.000000)">
                <g id="视频" transform="translate(56.000000, 10.000000)">
                    <rect id="矩形" fill-opacity="0" fill="#FFFFFF" x="0" y="0" width="20" height="20"></rect>
                    <g transform="translate(1.000000, 3.000000)" fill-rule="nonzero">
                        <rect id="矩形" fill="#000000" opacity="0" x="2.4622309e-06" y="4.99927141e-05" width="13.5000038" height="13.9999"></rect>
                        <path d="M3.37509341,0.583421944 C3.37509341,0.26126029 3.62693163,9.66681619e-05 3.93758981,9.66681619e-05 C4.248248,9.66681619e-05 4.50008622,0.26126029 4.50008622,0.583421944 L4.50008622,13.4165781 C4.50008622,13.7387397 4.248248,13.9999033 3.93758981,13.9999033 C3.62693163,13.9999033 3.37509341,13.7387397 3.37509341,13.4165781 L3.37509341,0.583421944 Z M7.31256825,5.23835766 C7.31256825,4.92336202 7.52631688,4.78336395 7.8075651,4.923362 L10.8112959,6.48667376 C11.3625424,6.7783364 11.3512925,7.24499662 10.8112959,7.52499275 L10.3725487,7.75832286 L7.81881502,9.076638 C7.53756682,9.21663607 7.31256825,9.076638 7.31256825,8.76164234 L7.31256825,5.23835766 Z" id="形状" fill="#999999"></path>
                        <path d="M0.000114957868,5.25002416 C-0.002908918,5.09639966 0.053830991,4.94798078 0.157539321,4.83823733 C0.261247652,4.72849388 0.403191572,4.66666688 0.551361442,4.66669888 L3.92633988,4.66669888 C4.07746276,4.66356388 4.22344314,4.7236344 4.33137748,4.83337075 C4.43931181,4.94310709 4.50011645,5.09327395 4.50008622,5.25002416 C4.5031101,5.40364866 4.44637019,5.55206754 4.34266186,5.66181099 C4.23895354,5.77155445 4.09700962,5.83338145 3.94883975,5.83334945 L0.573861295,5.83334945 C0.42273841,5.83648446 0.276758032,5.77641393 0.168823696,5.66667758 C0.0608893609,5.55694124 8.47205922e-05,5.40677438 0.000114957868,5.25002416 Z M0.000114957868,8.74997584 C-0.0029089216,8.59635133 0.0538309858,8.44793245 0.157539317,8.338189 C0.261247647,8.22844555 0.40319157,8.16661855 0.551361442,8.16665055 L3.92633988,8.16665055 C4.07746277,8.16351554 4.22344314,8.22358607 4.33137748,8.33332242 C4.43931182,8.44305876 4.50011646,8.59322562 4.50008622,8.74997584 C4.50311009,8.90360034 4.44637019,9.05201922 4.34266186,9.16176267 C4.23895353,9.27150611 4.09700962,9.33333311 3.94883975,9.33330112 L0.573861295,9.33330112 C0.422738413,9.33643612 0.276758036,9.2763656 0.168823701,9.16662925 C0.060889366,9.05689291 8.47241351e-05,8.90672605 0.000114957868,8.74997584 L0.000114957868,8.74997584 Z M13.5000287,5.25002416 C13.4970049,5.09639966 13.5537448,4.94798078 13.6574531,4.83823733 C13.7611614,4.72849389 13.9031053,4.66666689 14.0512752,4.66669887 L17.4262537,4.66669887 C17.7325097,4.67305208 17.9775614,4.93236411 17.9775001,5.25002416 C17.980524,5.40364866 17.9237841,5.55206754 17.8200758,5.66181099 C17.7163675,5.77155445 17.5744235,5.83338145 17.4262537,5.83334946 L14.0512752,5.83334946 C13.7450191,5.82699625 13.4999675,5.56768422 13.5000287,5.25002416 L13.5000287,5.25002416 Z M13.5000287,8.74997584 C13.4970049,8.59635134 13.5537448,8.44793246 13.6574531,8.33818901 C13.7611614,8.22844555 13.9031053,8.16661855 14.0512752,8.16665054 L17.4262537,8.16665054 C17.7325097,8.17300375 17.9775614,8.43231578 17.9775001,8.74997584 C17.980524,8.90360034 17.9237841,9.05201922 17.8200758,9.16176267 C17.7163674,9.27150611 17.5744235,9.33333311 17.4262537,9.33330113 L14.0512752,9.33330113 C13.7450192,9.32694792 13.4999675,9.06763589 13.5000287,8.74997584 L13.5000287,8.74997584 Z" id="形状" fill="#999999"></path>
                        <path d="M13.5000287,0.583421944 C13.5000287,0.26126029 13.751867,9.66681619e-05 14.0625251,9.66681619e-05 C14.3731833,9.66681619e-05 14.6250215,0.26126029 14.6250215,0.583421944 L14.6250215,13.4165781 C14.6250215,13.7387397 14.3731833,13.9999033 14.0625251,13.9999033 C13.751867,13.9999033 13.5000287,13.7387397 13.5000287,13.4165781 L13.5000287,0.583421944 Z" id="路径" fill="#999999"></path>
                        <path d="M16.6500086,4.75664401e-05 L1.35010634,4.75664401e-05 C0.993104841,-0.003014558 0.649693454,0.141879205 0.396192312,0.402576593 C0.142691169,0.66327398 0.000114957868,1.01817672 0.000114957868,1.38841082 L0.000114957868,12.5999227 C0.00623075012,13.3704683 0.607074677,13.9935611 1.35010634,13.9999524 L16.6500086,13.9999524 C17.0070101,14.0030146 17.3504215,13.8581208 17.6039226,13.5974234 C17.8574238,13.336726 18,12.9818233 18,12.6115892 L18,1.38841082 C17.9878139,0.622424891 17.3887195,0.00632373429 16.6500086,4.75664401e-05 Z M16.8750072,11.8999323 C16.8750072,12.4108691 16.478917,12.8268661 15.9862629,12.8332528 L2.0138521,12.8332528 C1.52119793,12.8268661 1.12510778,12.4108691 1.12510778,11.8999323 L1.12510778,2.10006766 C1.12510778,1.58913091 1.52119793,1.17313393 2.0138521,1.16674722 L15.9862629,1.16674722 C16.478917,1.17313393 16.8750072,1.58913091 16.8750072,2.10006766 L16.8750072,11.8999323 Z" id="形状" fill="#999999"></path>
                    </g>
                </g>
            </g>
        </g>
    </g>
</svg>
